FILE "Dragon Knight 4 (1997)(NEC Avenue)(JP)[FXNAV603].img" BINARY
  TRACK 01 AUDIO
    INDEX 01 00:00:00
  TRACK 02 MODE1/2352
    PREGAP 00:03:00
    INDEX 01 00:55:45
  TRACK 03 AUDIO
    PREGAP 00:02:00
    INDEX 01 39:17:62
  TRACK 04 AUDIO
    INDEX 01 43:30:68
